<?xml version="1.0" encoding="utf-8"?>
<!-- Generator: Adobe Illustrator 16.0.0, SVG Export Plug-In . SVG Version: 6.00 Build 0)  -->
<!DOCTYPE svg PUBLIC "-//W3C//DTD SVG 1.1//EN" "https://www.w3.org/Graphics/SVG/1.1/DTD/svg11.dtd">
<svg version="1.1" id="Layer_1" xmlns="https://www.w3.org/2000/svg" xmlns:xlink="https://www.w3.org/1999/xlink" x="0px" y="0px"
	 width="150px" height="30px" viewBox="0 0 150 30" enable-background="new 0 0 150 30" xml:space="preserve">
<g>
	<g>
		<path d="M0,0.615c0-0.327,0.262-0.62,0.62-0.62h7.433c4.01,0,7.302,3.26,7.302,7.205c0,4.043-3.292,7.337-7.271,7.337H3.358v7.661
			c0,0.326-0.293,0.619-0.619,0.619H0.62c-0.358,0-0.62-0.293-0.62-0.619V0.615z M7.856,11.341c2.251,0,4.141-1.826,4.141-4.172
			c0-2.217-1.89-3.913-4.141-3.913H3.358v8.085H7.856z"/>
		<path d="M19.366,0.615c0-0.327,0.261-0.62,0.62-0.62h8.866c3.912,0,7.106,3.097,7.106,6.977c0,3-1.988,5.478-4.824,6.619
			l4.465,8.281c0.229,0.424,0,0.945-0.553,0.945h-2.543c-0.261,0-0.456-0.162-0.521-0.293l-4.336-8.639h-4.922v8.313
			c0,0.326-0.293,0.619-0.619,0.619h-2.119c-0.359,0-0.62-0.293-0.62-0.619V0.615z M28.592,11.08c2.119,0,3.977-1.794,3.977-4.043
			c0-2.119-1.857-3.879-3.977-3.879h-5.803v7.922H28.592z"/>
		<path d="M41.047,0.615c0-0.327,0.26-0.62,0.619-0.62h13.039c0.359,0,0.619,0.293,0.619,0.62V2.44c0,0.326-0.26,0.62-0.619,0.62
			H44.404v6.651h8.703c0.326,0,0.619,0.292,0.619,0.619v1.825c0,0.358-0.293,0.619-0.619,0.619h-8.703v7.011h10.301
			c0.359,0,0.619,0.293,0.619,0.619v1.793c0,0.326-0.26,0.619-0.619,0.619H41.666c-0.359,0-0.619-0.293-0.619-0.619V0.615z"/>
		<path d="M60.248,0.615c0-0.327,0.262-0.62,0.588-0.62h7.496c6.292,0,11.443,5.118,11.443,11.378
			c0,6.326-5.152,11.443-11.443,11.443h-7.496c-0.326,0-0.588-0.293-0.588-0.619V0.615z M67.877,19.719
			c4.793,0,8.279-3.52,8.279-8.346c0-4.792-3.486-8.281-8.279-8.281h-4.303v16.626H67.877z"/>
		<path d="M84.473,0.615c0-0.327,0.293-0.62,0.619-0.62h2.15c0.326,0,0.621,0.293,0.621,0.62v21.582
			c0,0.326-0.295,0.619-0.621,0.619h-2.15c-0.326,0-0.619-0.293-0.619-0.619V0.615z"/>
		<path d="M104.293-0.331c3.293,0,5.672,1.108,7.889,3.032c0.293,0.261,0.293,0.652,0.033,0.913l-1.436,1.467
			c-0.227,0.293-0.521,0.293-0.814,0c-1.531-1.336-3.617-2.184-5.641-2.184c-4.66,0-8.182,3.912-8.182,8.476
			s3.555,8.443,8.215,8.443c2.381,0,4.043-0.943,5.607-2.15c0.293-0.229,0.588-0.195,0.783-0.033l1.498,1.467
			c0.26,0.229,0.195,0.652-0.031,0.881c-2.217,2.152-5.021,3.162-7.922,3.162c-6.52,0-11.768-5.184-11.768-11.704
			S97.773-0.331,104.293-0.331z"/>
		<path d="M120.008,3.06h-5.312c-0.359,0-0.621-0.294-0.621-0.62V0.615c0-0.327,0.262-0.62,0.621-0.62h14.016
			c0.359,0,0.619,0.293,0.619,0.62V2.44c0,0.326-0.26,0.62-0.619,0.62h-5.312v19.137c0,0.326-0.293,0.619-0.619,0.619h-2.152
			c-0.326,0-0.619-0.293-0.619-0.619V3.06z"/>
		<path d="M128.551,21.971l10.008-21.942c0.098-0.196,0.391-0.359,0.553-0.359h0.328c0.162,0,0.455,0.163,0.553,0.359l9.941,21.942
			c0.195,0.424-0.064,0.846-0.553,0.846h-2.055c-0.391,0-0.621-0.195-0.748-0.488l-2.021-4.467h-10.66
			c-0.652,1.5-1.338,2.967-1.988,4.467c-0.098,0.229-0.359,0.488-0.75,0.488h-2.055C128.615,22.816,128.354,22.395,128.551,21.971z
			 M143.316,15.057l-4.01-8.933h-0.162l-3.977,8.933H143.316z"/>
	</g>
	<linearGradient id="SVGID_1_" gradientUnits="userSpaceOnUse" x1="0" y1="28.9961" x2="150" y2="28.9961">
		<stop  offset="0" style="stop-color:#C40233"/>
		<stop  offset="0.3454" style="stop-color:#FFD300"/>
		<stop  offset="0.7039" style="stop-color:#00A368"/>
		<stop  offset="1" style="stop-color:#0088BF"/>
	</linearGradient>
	<rect y="27.996" fill="url(#SVGID_1_)" width="150" height="2"/>
</g>
</svg>
